<svg xmlns="http://www.w3.org/2000/svg" xmlns:xlink="http://www.w3.org/1999/xlink" width="432" height="432" viewBox="0 0 432 432">
  <defs>
    <clipPath id="clip-path">
      <rect id="Rectangle_69" data-name="Rectangle 69" width="282" height="282" transform="translate(38 0.667)" fill="#fff" stroke="#707070" stroke-width="1"/>
    </clipPath>
    <clipPath id="clip-path-2">
      <rect id="Rectangle_71" data-name="Rectangle 71" width="282" height="282"/>
    </clipPath>
    <clipPath id="clip-Artboard_3">
      <rect width="432" height="432"/>
    </clipPath>
  </defs>
  <g id="Artboard_3" data-name="Artboard – 3" clip-path="url(#clip-Artboard_3)">
    <rect width="432" height="432" fill="#fff"/>
    <g id="Mask_Group_1" data-name="Mask Group 1" transform="translate(37 74.333)" clip-path="url(#clip-path)">
      <g id="Artboard_2" data-name="Artboard – 2" transform="translate(38 0.667)" clip-path="url(#clip-path-2)">
        <rect id="Rectangle_70" data-name="Rectangle 70" width="282" height="282" fill="#fff"/>
        <g id="Group_1" data-name="Group 1" transform="translate(7.174 25.941)">
          <path id="Path_1" data-name="Path 1" d="M220.652,77.508h-1.883c-10.838,0-21.675-.017-32.513.024a2.881,2.881,0,0,1-2.651-1.314c-13-17.684-30.3-29.093-52.08-33.8a86.163,86.163,0,0,0-28.255-1.245c-32.621,3.768-60.553,26-70.913,56.5A82.772,82.772,0,0,0,28.218,131c2.653,34.511,26.879,62.483,57.649,72.686a86.516,86.516,0,0,0,34.708,4.178A85.251,85.251,0,0,0,171.761,185.8c.414-.373.9-.672,1.544-1.146l-7.43-6.77c1.036-.745,49.173-15.359,51.022-15.474l-11.813,51.112-8.56-7.73c-23.852,22.358-52.085,33.858-85.091,33.4a116.371,116.371,0,0,1-67.954-22.639C3.072,187.371-13.76,135.508,1.924,88.6,17.658,41.543,62.5,9.523,113.243,9.447,166,9.368,204.984,42.1,220.652,77.508Z" transform="translate(3.882 -9.447)" fill="#ffd300"/>
          <rect id="crop" width="220.913" height="229.761" transform="translate(3.62 0)" fill="none"/>
          <g id="Vector_Smart_Object" data-name="Vector Smart Object" transform="translate(79.438 62.738)">
            <g id="Vector_Smart_Object-2" data-name="Vector Smart Object" transform="translate(0 0)">
              <path id="Path_3" data-name="Path 3" d="M78.406,182.332V77.836a12.138,12.138,0,0,1,1.214-.121c12.619.031,25.24-.047,37.857.153a47.712,47.712,0,0,1,19.646,4.346c5.063,2.369,9.292,5.7,11.984,10.689a28.054,28.054,0,0,1,3.03,14.947,22.16,22.16,0,0,1-1.985,8.275A21.647,21.647,0,0,1,139.9,126.65c-.632.32-1.269.631-2.244,1.116.912.239,1.444.381,1.976.517A22.606,22.606,0,0,1,157.1,148.912a36,36,0,0,1-.911,11.99c-2.246,8.841-8.035,14.535-16.33,17.953a48.9,48.9,0,0,1-15.617,3.321c-2.022.131-4.054.148-6.081.15q-18.761.019-37.521.006Zm21.008-16.181a8.753,8.753,0,0,0,.995.131c6.588,0,13.176.019,19.764-.017a20.788,20.788,0,0,0,8.7-1.774,11.332,11.332,0,0,0,6.938-8.7,25.832,25.832,0,0,0,.259-6.668c-.659-6.76-4.939-11.319-11.647-12.561a34.775,34.775,0,0,0-5.87-.557c-5.8-.071-11.6-.028-17.4-.021-.547,0-1.093.064-1.738.1Zm-.006-44.8a3.581,3.581,0,0,0,.717.166c5.515-.012,11.033.047,16.545-.091A18.065,18.065,0,0,0,124.3,119.5a11.151,11.151,0,0,0,6.531-8.6,20.751,20.751,0,0,0,.209-4.5c-.374-5.516-3.135-9.318-8.454-11.168a27.081,27.081,0,0,0-8.96-1.39q-6.248,0-12.5,0c-.544,0-1.089.057-1.725.092Z" transform="translate(-78.406 -77.714)"/>
            </g>
            <path id="Color_Overlay" data-name="Color Overlay" d="M2.233,104.617H0V.121C.457.074.835,0,1.214,0,13.832.031,26.453-.047,39.071.153A47.713,47.713,0,0,1,58.717,4.5c5.064,2.369,9.293,5.7,11.985,10.689a28.053,28.053,0,0,1,3.031,14.947,22.157,22.157,0,0,1-1.985,8.276A21.647,21.647,0,0,1,61.494,48.936c-.632.32-1.269.631-2.244,1.116.912.239,1.444.381,1.976.517A22.606,22.606,0,0,1,78.694,71.2a35.993,35.993,0,0,1-.911,11.99c-2.246,8.841-8.035,14.535-16.33,17.953a48.9,48.9,0,0,1-15.617,3.321c-2.022.131-4.054.148-6.081.15q-9.437.01-18.872.008ZM22.747,58.271c-.547,0-1.093.064-1.738.1V88.437a8.747,8.747,0,0,0,.993.131c6.588,0,13.176.019,19.764-.017a20.788,20.788,0,0,0,8.7-1.774,11.331,11.331,0,0,0,6.938-8.7,25.829,25.829,0,0,0,.259-6.668C57,64.65,52.726,60.091,46.016,58.85a34.776,34.776,0,0,0-5.87-.557q-3.814-.047-7.629-.041C29.26,58.252,26,58.267,22.747,58.271Zm3.4-14.468c4.041,0,8.083.01,12.121-.091A18.063,18.063,0,0,0,45.9,41.783a11.15,11.15,0,0,0,6.531-8.6,20.761,20.761,0,0,0,.209-4.5c-.374-5.516-3.135-9.318-8.454-11.168a27.082,27.082,0,0,0-8.96-1.39q-6.248,0-12.5,0c-.544,0-1.089.057-1.725.092V43.637a3.583,3.583,0,0,0,.717.166l1.833,0Z" transform="translate(0 0)" fill="#353132"/>
          </g>
          <path id="Path_5" data-name="Path 5" d="M210.142,109.962c3.706-3.011,8.1-3.915,12.67-4.008,7.082-.143,14.17-.068,21.255-.077.091,0,.182.093.389.206a6.776,6.776,0,0,1-.621.524,15.522,15.522,0,0,0-4.974,5.086,1.963,1.963,0,0,1-1.994.985c-4.45-.02-8.9-.041-13.35.064a12.058,12.058,0,0,0-3.923.759,5.794,5.794,0,0,0-2.017,9.136,3.687,3.687,0,0,0,2.934,1.214c2.456-.081,4.921-.12,7.374-.019a19.751,19.751,0,0,1,8.253,2.078v1.773c0,2.388-.055,4.777.018,7.163a19.344,19.344,0,0,0,3.375,11.051c-.649.557-1.242,1.148-1.918,1.633a15.873,15.873,0,0,1-7.279,2.715A45.41,45.41,0,0,1,216,150.091a61.16,61.16,0,0,1-6.256-1.861c-3.817,2.125-8.35,2.442-12.951,2.442H175.972a10.383,10.383,0,0,1,.851-1.018c1.838-1.632,3.718-3.222,5.527-4.883a3.352,3.352,0,0,1,2.487-.941q6.763.061,13.527-.011a15.278,15.278,0,0,0,3.637-.434,5.344,5.344,0,0,0,4.217-4.967c.388-4.537-2.133-7.348-6.933-7.616-1.926-.108-3.863-.033-5.8-.04-.633,0-1.266,0-2.045,0v-6.078c.823,0,1.568.023,2.31,0a41.242,41.242,0,0,0,5.073-.257c4.3-.7,6.355-4.58,4.568-8.37a4.676,4.676,0,0,0-3.026-2.611,17.057,17.057,0,0,0-4.116-.69c-3.8-.092-7.612-.061-11.418-.015a3.344,3.344,0,0,1-2.5-.921c-1.766-1.622-3.6-3.173-5.4-4.762-.287-.253-.531-.552-.985-1.03.812-.041,1.376-.093,1.94-.094,6.208-.006,12.415-.036,18.622.008a22.922,22.922,0,0,1,11.309,2.556C208.611,108.941,209.354,109.462,210.142,109.962Zm12.606,33.56c0,.047.009.1.013.143a43.834,43.834,0,0,0,5.563-.518,5.762,5.762,0,0,0,4.711-6.188,5.83,5.83,0,0,0-4.955-5.863,25.127,25.127,0,0,0-9.248.008,5.646,5.646,0,0,0-4.4,3.469,7.647,7.647,0,0,0-.388,4.746,5.368,5.368,0,0,0,5.541,4.2C220.64,143.533,221.694,143.522,222.748,143.522Z" transform="translate(-12.138 -16.021)" fill="#353132"/>
          <path id="Path_6" data-name="Path 6" d="M277.107,128.214c0,2.773.158,5.556-.029,8.318-.594,8.764-7.141,14.646-16.405,14.747a25.633,25.633,0,0,1-6.248-.615c-6.464-1.567-10.295-5.639-11.668-11.782a19.218,19.218,0,0,1-.414-3.964c-.049-4.494-.1-8.99.02-13.481a21.464,21.464,0,0,1,.852-5.569c1.873-6.217,7.482-10.314,14.5-10.755a24.585,24.585,0,0,1,6.981.429c6.94,1.562,11.79,6.831,12.324,13.693.232,2.978.039,5.986.039,8.98Zm-10.154.09c0-2.607.1-5.218-.037-7.818a14.727,14.727,0,0,0-.846-4.38c-1.063-2.833-3.335-4.182-6.476-4.151a6.093,6.093,0,0,0-6.189,4.275,14.927,14.927,0,0,0-.841,4.553c-.1,4.934-.07,9.872-.024,14.808a11.223,11.223,0,0,0,1.243,5.479,6.4,6.4,0,0,0,6.147,3.389,6.234,6.234,0,0,0,5.884-3.5,10.647,10.647,0,0,0,1.135-5C266.958,133.406,266.953,130.855,266.953,128.3Z" transform="translate(-16.612 -15.96)" fill="#353132"/>
          <path id="Path_7" data-name="Path 7" d="M281.315,95.407a5.336,5.336,0,1,1-5.717,5.357A5.518,5.518,0,0,1,281.315,95.407Z" transform="translate(-18.858 -15.316)" fill="#353132"/>
          <rect id="Rectangle_1" data-name="Rectangle 1" width="8.621" height="0.183" transform="translate(205.428 127.501)" fill="#353132"/>
          <rect id="crop-2" data-name="crop" width="99.47" height="55.23" transform="translate(163.812 80.091)" fill="none"/>
        </g>
      </g>
    </g>
  </g>
</svg>
